<svg xmlns="http://www.w3.org/2000/svg" viewBox="0 0 512 512" width="100%" height="100%">
  <defs>
    <linearGradient id="bg" x1="0%" y1="0%" x2="100%" y2="100%">
      <stop offset="0%" stop-color="#1a1408" />
      <stop offset="100%" stop-color="#0a0703" />
    </linearGradient>
    <filter id="glow" x="-20%" y="-20%" width="140%" height="140%">
      <feGaussianBlur stdDeviation="10" result="blur" />
      <feMerge><feMergeNode in="blur" /><feMergeNode in="SourceGraphic" /></feMerge>
    </filter>
  </defs>
  <rect width="512" height="512" rx="112" fill="url(#bg)" />
  <rect x="24" y="24" width="464" height="464" rx="88" fill="none" stroke="#D4AF37" stroke-width="4" stroke-opacity="0.25" />
  <g filter="url(#glow)" fill="#D4AF37">
    <path d="M256 150c-14 0-25 11-25 25 0 8 4 15 10 20l-14 60h58l-14-60c6-5 10-12 10-20 0-14-11-25-25-25z"/>
    <rect x="216" y="255" width="80" height="18" rx="4"/>
    <path d="M206 290h100l14 60h-128z"/>
    <rect x="196" y="350" width="120" height="20" rx="6"/>
  </g>
  <text x="256" y="445" text-anchor="middle" fill="#ffffff" font-family="system-ui, -apple-system, 'Segoe UI', Roboto, sans-serif" font-weight="900" font-size="30" letter-spacing="12" opacity="0.9">CHESS</text>
</svg>
