<svg xmlns="http://www.w3.org/2000/svg" viewBox="0 0 512 512" width="100%" height="100%">
  <defs>
    <linearGradient id="bgGrad2" x1="0%" y1="0%" x2="100%" y2="100%">
      <stop offset="0%" stop-color="#2a1200" />
      <stop offset="100%" stop-color="#150800" />
    </linearGradient>
    <filter id="neonGlow2" x="-20%" y="-20%" width="140%" height="140%">
      <feGaussianBlur stdDeviation="12" result="blur" />
      <feMerge>
        <feMergeNode in="blur" />
        <feMergeNode in="SourceGraphic" />
      </feMerge>
    </filter>
  </defs>
  <rect width="512" height="512" rx="112" fill="url(#bgGrad2)" />
  <rect x="24" y="24" width="464" height="464" rx="88" fill="none" stroke="#FF8A00" stroke-width="4" stroke-opacity="0.25" />
  <g transform="translate(166,180)" fill="#FF8A00" filter="url(#neonGlow2)">
    <rect x="0" y="0" width="52" height="52" rx="8"/>
    <rect x="60" y="0" width="52" height="52" rx="8" opacity="0.85"/>
    <rect x="120" y="0" width="52" height="52" rx="8" opacity="0.6"/>
    <rect x="0" y="60" width="52" height="52" rx="8" opacity="0.85"/>
    <rect x="60" y="60" width="52" height="52" rx="8"/>
    <rect x="120" y="60" width="52" height="52" rx="8" opacity="0.85"/>
    <rect x="0" y="120" width="52" height="52" rx="8" opacity="0.6"/>
    <rect x="60" y="120" width="52" height="52" rx="8" opacity="0.85"/>
    <rect x="120" y="120" width="52" height="52" rx="8"/>
  </g>
  <text x="256" y="445" text-anchor="middle" fill="#ffffff" font-family="system-ui, -apple-system, 'Segoe UI', Roboto, sans-serif" font-weight="900" font-size="36" letter-spacing="6" opacity="0.9">TEN BY</text>
  <text x="256" y="475" text-anchor="middle" fill="#FF8A00" font-family="system-ui, -apple-system, 'Segoe UI', Roboto, sans-serif" font-weight="900" font-size="22" letter-spacing="14" filter="url(#neonGlow2)">TEN</text>
</svg>
