<svg xmlns="http://www.w3.org/2000/svg" viewBox="0 0 512 512" width="512" height="512">
  <defs>
    <clipPath id="rs3">
      <rect x="16" y="16" width="480" height="480" rx="104" ry="104"/>
    </clipPath>
  </defs>

  <g clip-path="url(#rs3)">
    <rect x="0" y="0" width="512" height="512" fill="#16162A"/>
  </g>

  <!-- Forked path -->
  <g stroke-linecap="round" fill="none">
    <path d="M256 412 L256 296" stroke="#F4F1EA" stroke-width="32"/>
    <path d="M256 296 C256 244, 158 226, 128 142" stroke="#FF5A5F" stroke-width="32"/>
    <path d="M256 296 C256 244, 354 226, 384 142" stroke="#2D9CDB" stroke-width="32"/>
  </g>

  <!-- vote bars, A side (slightly taller set, leans left) -->
  <rect x="84"  y="92"  width="22" height="58" rx="7" fill="#FF5A5F"/>
  <rect x="112" y="68"  width="22" height="82" rx="7" fill="#FF5A5F"/>
  <rect x="140" y="104" width="22" height="46" rx="7" fill="#FF5A5F"/>

  <!-- vote bars, B side -->
  <rect x="350" y="104" width="22" height="46" rx="7" fill="#2D9CDB"/>
  <rect x="378" y="68"  width="22" height="82" rx="7" fill="#2D9CDB"/>
  <rect x="406" y="92"  width="22" height="58" rx="7" fill="#2D9CDB"/>

  <!-- base node -->
  <circle cx="256" cy="424" r="24" fill="#F4F1EA"/>
</svg>
